<svg width="1200" height="800" viewBox="0 0 1200 800" fill="none" xmlns="http://www.w3.org/2000/svg">
  <defs>
    <linearGradient id="bg" x1="0" y1="0" x2="1200" y2="800" gradientUnits="userSpaceOnUse">
      <stop offset="0" stop-color="#f1ead8"/>
      <stop offset="1" stop-color="#d2c5ad"/>
    </linearGradient>
  </defs>
  <rect width="1200" height="800" rx="48" fill="url(#bg)"/>
  <rect x="130" y="110" width="940" height="580" rx="42" fill="#f3f3ee" stroke="#b6ad90" stroke-width="6"/>

  <rect x="180" y="170" width="560" height="460" rx="30" fill="#e2ded3"/>
  <path d="M230 545L320 430L395 470L500 340L620 280L690 230" stroke="#656d4a" stroke-width="16" stroke-linecap="round" stroke-linejoin="round"/>
  <circle cx="230" cy="545" r="14" fill="#7f4f24"/>
  <circle cx="320" cy="430" r="14" fill="#7f4f24"/>
  <circle cx="395" cy="470" r="14" fill="#7f4f24"/>
  <circle cx="500" cy="340" r="14" fill="#7f4f24"/>
  <circle cx="620" cy="280" r="14" fill="#7f4f24"/>
  <circle cx="690" cy="230" r="14" fill="#7f4f24"/>

  <rect x="770" y="180" width="250" height="160" rx="26" fill="#d3cebc"/>
  <rect x="770" y="365" width="250" height="120" rx="26" fill="#c2c5aa"/>
  <rect x="770" y="510" width="180" height="120" rx="26" fill="#a4ac86"/>

  <path d="M815 238H978" stroke="#582f0e" stroke-width="14" stroke-linecap="round"/>
  <path d="M815 286H950" stroke="#936639" stroke-width="14" stroke-linecap="round"/>
  <text x="815" y="430" fill="#333d29" font-family="Georgia, serif" font-size="52" font-weight="700">IMDB</text>
  <path d="M810 555H925" stroke="#7f4f24" stroke-width="14" stroke-linecap="round"/>
  <path d="M810 595H900" stroke="#7f4f24" stroke-width="14" stroke-linecap="round"/>
</svg>
