<svg width="1200" height="800" viewBox="0 0 1200 800" fill="none" xmlns="http://www.w3.org/2000/svg">
  <defs>
    <linearGradient id="bg" x1="0" y1="0" x2="1200" y2="800" gradientUnits="userSpaceOnUse">
      <stop offset="0" stop-color="#efe9db"/>
      <stop offset="1" stop-color="#cfc0a8"/>
    </linearGradient>
    <linearGradient id="doc" x1="200" y1="150" x2="560" y2="640" gradientUnits="userSpaceOnUse">
      <stop offset="0" stop-color="#f5f4ef"/>
      <stop offset="1" stop-color="#ddd4c4"/>
    </linearGradient>
  </defs>
  <rect width="1200" height="800" rx="48" fill="url(#bg)"/>
  <rect x="130" y="110" width="940" height="580" rx="42" fill="#f3f3ee" stroke="#b6ad90" stroke-width="6"/>

  <rect x="200" y="150" width="360" height="500" rx="30" fill="url(#doc)" stroke="#a68a64" stroke-width="5"/>
  <path d="M250 230H510" stroke="#7f4f24" stroke-width="14" stroke-linecap="round"/>
  <path d="M250 290H490" stroke="#936639" stroke-width="14" stroke-linecap="round"/>
  <path d="M250 350H500" stroke="#936639" stroke-width="14" stroke-linecap="round"/>
  <path d="M250 410H455" stroke="#a68a64" stroke-width="14" stroke-linecap="round"/>

  <rect x="640" y="170" width="380" height="160" rx="28" fill="#d3cebc"/>
  <rect x="640" y="355" width="380" height="130" rx="28" fill="#c2c5aa"/>
  <rect x="640" y="510" width="280" height="130" rx="28" fill="#a4ac86"/>

  <path d="M705 250H940" stroke="#582f0e" stroke-width="16" stroke-linecap="round"/>
  <path d="M705 420H980" stroke="#582f0e" stroke-width="16" stroke-linecap="round"/>

  <path d="M570 360H625" stroke="#333d29" stroke-width="12" stroke-linecap="round"/>
  <path d="M610 338L640 360L610 382" stroke="#333d29" stroke-width="12" stroke-linecap="round" stroke-linejoin="round"/>

  <rect x="745" y="545" width="130" height="80" rx="18" fill="#f0efe9"/>
  <path d="M785 574H835" stroke="#7f4f24" stroke-width="12" stroke-linecap="round"/>
  <path d="M785 602H820" stroke="#7f4f24" stroke-width="12" stroke-linecap="round"/>
</svg>
