<svg width="1200" height="800" viewBox="0 0 1200 800" fill="none" xmlns="http://www.w3.org/2000/svg">
  <defs>
    <linearGradient id="bg" x1="0" y1="0" x2="1200" y2="800" gradientUnits="userSpaceOnUse">
      <stop offset="0" stop-color="#ede8e0"/>
      <stop offset="1" stop-color="#c9b9a2"/>
    </linearGradient>
    <linearGradient id="card" x1="180" y1="150" x2="1020" y2="650" gradientUnits="userSpaceOnUse">
      <stop offset="0" stop-color="#f3f3ee"/>
      <stop offset="1" stop-color="#dbd0c1"/>
    </linearGradient>
  </defs>
  <rect width="1200" height="800" rx="48" fill="url(#bg)"/>
  <rect x="160" y="110" width="880" height="580" rx="42" fill="#f0efe9" stroke="#b6ad90" stroke-width="6"/>
  <rect x="220" y="170" width="760" height="70" rx="22" fill="#333d29"/>
  <rect x="220" y="270" width="320" height="340" rx="28" fill="url(#card)"/>
  <rect x="570" y="270" width="410" height="100" rx="24" fill="#d3cebc"/>
  <rect x="570" y="390" width="410" height="100" rx="24" fill="#c2c5aa"/>
  <rect x="570" y="510" width="260" height="100" rx="24" fill="#a4ac86"/>
  <circle cx="285" cy="340" r="28" fill="#656d4a"/>
  <circle cx="285" cy="430" r="28" fill="#a68a64"/>
  <circle cx="285" cy="520" r="28" fill="#7f4f24"/>
  <path d="M645 320H905" stroke="#582f0e" stroke-width="18" stroke-linecap="round"/>
  <path d="M645 440H955" stroke="#7f4f24" stroke-width="18" stroke-linecap="round"/>
  <path d="M645 560H855" stroke="#936639" stroke-width="18" stroke-linecap="round"/>
</svg>
