<svg width="1200" height="800" viewBox="0 0 1200 800" fill="none" xmlns="http://www.w3.org/2000/svg">
  <defs>
    <linearGradient id="bg" x1="0" y1="0" x2="1200" y2="800" gradientUnits="userSpaceOnUse">
      <stop offset="0" stop-color="#f5d5ba"/>
      <stop offset="1" stop-color="#cbbda9"/>
    </linearGradient>
    <linearGradient id="panel" x1="170" y1="130" x2="1030" y2="670" gradientUnits="userSpaceOnUse">
      <stop offset="0" stop-color="#f4f1e8"/>
      <stop offset="1" stop-color="#d8cfbd"/>
    </linearGradient>
  </defs>
  <rect width="1200" height="800" rx="48" fill="url(#bg)"/>
  <rect x="130" y="110" width="940" height="580" rx="42" fill="url(#panel)" stroke="#a68a64" stroke-width="6"/>

  <rect x="180" y="170" width="420" height="470" rx="30" fill="#e7e8dd"/>
  <circle cx="390" cy="365" r="130" fill="#c26d3f"/>
  <circle cx="360" cy="328" r="18" fill="#9b4f2c"/>
  <circle cx="437" cy="395" r="26" fill="#9b4f2c"/>
  <circle cx="335" cy="430" r="14" fill="#9b4f2c"/>

  <rect x="640" y="170" width="380" height="170" rx="28" fill="#d3cebc"/>
  <rect x="640" y="365" width="380" height="120" rx="28" fill="#c2c5aa"/>
  <rect x="640" y="510" width="250" height="130" rx="28" fill="#b6bd9e"/>

  <path d="M690 230H970" stroke="#582f0e" stroke-width="16" stroke-linecap="round"/>
  <path d="M690 280H935" stroke="#7f4f24" stroke-width="16" stroke-linecap="round"/>
  <path d="M690 415H980" stroke="#936639" stroke-width="16" stroke-linecap="round"/>

  <path d="M820 575C845 545 890 545 915 575" stroke="#7f4f24" stroke-width="12" stroke-linecap="round"/>
  <path d="M820 605C845 575 890 575 915 605" stroke="#7f4f24" stroke-width="12" stroke-linecap="round"/>
  <circle cx="858" cy="548" r="18" fill="#656d4a"/>
</svg>
