<svg width="1200" height="800" viewBox="0 0 1200 800" fill="none" xmlns="http://www.w3.org/2000/svg">
  <defs>
    <linearGradient id="bg" x1="0" y1="0" x2="1200" y2="800" gradientUnits="userSpaceOnUse">
      <stop offset="0" stop-color="#f0efe9"/>
      <stop offset="1" stop-color="#d3cebc"/>
    </linearGradient>
    <linearGradient id="panel" x1="160" y1="140" x2="1040" y2="660" gradientUnits="userSpaceOnUse">
      <stop offset="0" stop-color="#e2ded3"/>
      <stop offset="1" stop-color="#c5bea6"/>
    </linearGradient>
  </defs>
  <rect width="1200" height="800" rx="48" fill="url(#bg)"/>
  <rect x="120" y="120" width="960" height="560" rx="36" fill="#f3f3ee" stroke="#b6ad90" stroke-width="6"/>
  <rect x="160" y="170" width="880" height="80" rx="22" fill="#414833"/>
  <circle cx="210" cy="210" r="16" fill="#a68a64"/>
  <circle cx="260" cy="210" r="16" fill="#c2c5aa"/>
  <circle cx="310" cy="210" r="16" fill="#7f4f24"/>
  <rect x="180" y="290" width="360" height="320" rx="28" fill="url(#panel)"/>
  <rect x="580" y="290" width="460" height="150" rx="28" fill="#d3cebc"/>
  <rect x="580" y="470" width="220" height="140" rx="28" fill="#a4ac86"/>
  <rect x="830" y="470" width="210" height="140" rx="28" fill="#b6bd9e"/>
  <path d="M220 360H500" stroke="#582f0e" stroke-width="18" stroke-linecap="round"/>
  <path d="M220 415H450" stroke="#7f4f24" stroke-width="18" stroke-linecap="round"/>
  <path d="M220 470H470" stroke="#936639" stroke-width="18" stroke-linecap="round"/>
</svg>
