<svg width="1200" height="800" viewBox="0 0 1200 800" fill="none" xmlns="http://www.w3.org/2000/svg">
  <defs>
    <linearGradient id="bg" x1="0" y1="0" x2="1200" y2="800" gradientUnits="userSpaceOnUse">
      <stop offset="0" stop-color="#ece6d7"/>
      <stop offset="1" stop-color="#c5b79f"/>
    </linearGradient>
  </defs>
  <rect width="1200" height="800" rx="48" fill="url(#bg)"/>
  <rect x="130" y="110" width="940" height="580" rx="42" fill="#f3f3ee" stroke="#b6ad90" stroke-width="6"/>

  <rect x="170" y="170" width="460" height="470" rx="30" fill="#e2ded3"/>

  <circle cx="290" cy="300" r="16" fill="#656d4a"/>
  <circle cx="290" cy="395" r="16" fill="#656d4a"/>
  <circle cx="290" cy="490" r="16" fill="#656d4a"/>

  <circle cx="405" cy="265" r="16" fill="#a68a64"/>
  <circle cx="405" cy="345" r="16" fill="#a68a64"/>
  <circle cx="405" cy="425" r="16" fill="#a68a64"/>
  <circle cx="405" cy="505" r="16" fill="#a68a64"/>

  <circle cx="520" cy="315" r="16" fill="#7f4f24"/>
  <circle cx="520" cy="395" r="16" fill="#7f4f24"/>
  <circle cx="520" cy="475" r="16" fill="#7f4f24"/>

  <path d="M306 300L389 265M306 300L389 345M306 395L389 345M306 395L389 425M306 490L389 425M306 490L389 505" stroke="#8a7d5f" stroke-width="5"/>
  <path d="M421 265L504 315M421 345L504 315M421 345L504 395M421 425L504 395M421 425L504 475M421 505L504 475" stroke="#8a7d5f" stroke-width="5"/>

  <rect x="660" y="180" width="360" height="160" rx="28" fill="#d3cebc"/>
  <rect x="660" y="365" width="360" height="120" rx="28" fill="#c2c5aa"/>
  <rect x="660" y="510" width="250" height="130" rx="28" fill="#a4ac86"/>

  <path d="M710 240H965" stroke="#582f0e" stroke-width="14" stroke-linecap="round"/>
  <path d="M710 287H936" stroke="#936639" stroke-width="14" stroke-linecap="round"/>
  <path d="M710 430H980" stroke="#7f4f24" stroke-width="14" stroke-linecap="round"/>
  <path d="M710 570H880" stroke="#333d29" stroke-width="14" stroke-linecap="round"/>
</svg>
