<svg width="1200" height="800" viewBox="0 0 1200 800" fill="none" xmlns="http://www.w3.org/2000/svg">
  <defs>
    <linearGradient id="bg" x1="0" y1="0" x2="1200" y2="800" gradientUnits="userSpaceOnUse">
      <stop offset="0" stop-color="#eee6d6"/>
      <stop offset="1" stop-color="#c9b9a2"/>
    </linearGradient>
  </defs>
  <rect width="1200" height="800" rx="48" fill="url(#bg)"/>
  <rect x="130" y="110" width="940" height="580" rx="42" fill="#f3f3ee" stroke="#b6ad90" stroke-width="6"/>

  <rect x="180" y="170" width="430" height="470" rx="30" fill="#e2ded3"/>
  <circle cx="395" cy="395" r="125" fill="#d8cfbd"/>
  <circle cx="352" cy="362" r="16" fill="#333d29"/>
  <circle cx="438" cy="362" r="16" fill="#333d29"/>
  <path d="M345 450C370 475 420 475 445 450" stroke="#7f4f24" stroke-width="12" stroke-linecap="round"/>

  <rect x="650" y="180" width="370" height="130" rx="26" fill="#d3cebc"/>
  <rect x="650" y="335" width="370" height="130" rx="26" fill="#c2c5aa"/>
  <rect x="650" y="490" width="270" height="150" rx="26" fill="#a4ac86"/>

  <path d="M700 245H965" stroke="#582f0e" stroke-width="14" stroke-linecap="round"/>
  <path d="M700 400H980" stroke="#7f4f24" stroke-width="14" stroke-linecap="round"/>

  <rect x="730" y="525" width="210" height="90" rx="20" fill="#f0efe9"/>
  <path d="M758 570H910" stroke="#333d29" stroke-width="10" stroke-linecap="round"/>
  <path d="M772 548H804" stroke="#7f4f24" stroke-width="10" stroke-linecap="round"/>
  <path d="M844 548H876" stroke="#7f4f24" stroke-width="10" stroke-linecap="round"/>
</svg>
